<svg preserveAspectRatio="none" width="100%" height="100%" overflow="visible" style="display: block;" viewBox="0 0 14.2529 14.251" fill="none" xmlns="http://www.w3.org/2000/svg">
<path id="Vector" d="M14.2529 1.125V10.875C14.2529 11.1734 14.1344 11.4595 13.9234 11.6705C13.7124 11.8815 13.4263 12 13.1279 12C12.8295 12 12.5434 11.8815 12.3324 11.6705C12.1214 11.4595 12.0029 11.1734 12.0029 10.875V3.84375L1.92383 13.9209C1.71248 14.1323 1.42584 14.251 1.12695 14.251C0.828065 14.251 0.541421 14.1323 0.330077 13.9209C0.118732 13.7096 0 13.4229 0 13.1241C0 12.8252 0.118732 12.5385 0.330077 12.3272L10.4091 2.25H3.37789C3.07952 2.25 2.79337 2.13147 2.58239 1.9205C2.37142 1.70952 2.25289 1.42337 2.25289 1.125C2.25289 0.826631 2.37142 0.540483 2.58239 0.329505C2.79337 0.118526 3.07952 0 3.37789 0H13.1279C13.4263 0 13.7124 0.118526 13.9234 0.329505C14.1344 0.540483 14.2529 0.826631 14.2529 1.125Z" fill="var(--fill-0, #DC2626)"/>
</svg>
