<svg preserveAspectRatio="none" width="100%" height="100%" overflow="visible" style="display: block;" viewBox="0 0 333 64" fill="none" xmlns="http://www.w3.org/2000/svg">
<g id="Logo">
<path id="Vector" fill-rule="evenodd" clip-rule="evenodd" d="M324.17 31.578C322.61 32.184 320.454 32.494 317.704 32.507L329.5 45.847H325.445L313.648 32.507H311.794V45.847H308.516V17.116H315.05C318.692 17.116 321.16 17.247 322.454 17.508C324.401 17.899 325.984 18.736 327.203 20.02C328.422 21.304 329.032 22.885 329.032 24.763C329.032 26.327 328.612 27.703 327.772 28.889C326.932 30.076 325.731 30.972 324.17 31.578ZM324.749 22.126C324.153 21.338 323.372 20.775 322.404 20.437C321.436 20.098 319.828 19.929 317.579 19.929H311.794V29.694L317.445 29.734C319.635 29.734 321.253 29.552 322.303 29.187C323.353 28.823 324.172 28.24 324.76 27.439C325.348 26.638 325.642 25.743 325.642 24.753C325.642 23.79 325.344 22.914 324.749 22.126ZM287.154 28.933H302.54V31.745H287.154V43.034H302.54V45.847H283.875V17.116H302.674V19.929H287.154V28.933ZM273.241 45.847L261.444 32.507H259.591V45.847H256.313V17.116H262.847C266.489 17.116 268.956 17.247 270.25 17.508C272.198 17.899 273.781 18.736 275 20.02C276.219 21.304 276.828 22.885 276.828 24.763C276.828 26.327 276.408 27.703 275.568 28.889C274.729 30.076 273.528 30.972 271.967 31.578C270.406 32.184 268.25 32.494 265.5 32.507L277.297 45.847H273.241ZM270.099 29.187C271.15 28.823 271.968 28.24 272.556 27.439C273.144 26.638 273.44 25.743 273.44 24.753C273.44 23.79 273.141 22.914 272.545 22.126C271.95 21.338 271.168 20.775 270.2 20.437C269.232 20.098 267.624 19.929 265.376 19.929H259.591V29.694L265.242 29.734C267.431 29.734 269.049 29.552 270.099 29.187ZM243.769 44.812C242.053 45.983 239.974 46.569 237.536 46.569C234.89 46.569 232.623 46.016 230.735 44.909C228.847 43.803 227.583 42.338 226.944 40.515C226.543 39.395 226.342 37.377 226.342 34.46V17.116H229.62V34.46C229.62 36.518 229.664 37.8 229.754 38.308C229.917 39.44 230.297 40.388 230.891 41.149C231.486 41.911 232.401 42.549 233.634 43.064C234.868 43.578 236.11 43.835 237.358 43.835C238.444 43.835 239.484 43.633 240.481 43.23C241.476 42.826 242.308 42.266 242.977 41.55C243.647 40.834 244.137 39.968 244.449 38.952C244.673 38.223 244.784 36.726 244.784 34.46V17.116H248.062V34.46C248.062 37.025 247.776 39.099 247.204 40.681C246.631 42.263 245.486 43.64 243.769 44.812ZM212.446 36.394H198.315L193.205 45.847H189.548L205.046 17.116H205.848L221.147 45.847H217.605L212.446 36.394ZM205.435 23.22L199.814 33.62H211.029L205.435 23.22ZM179.546 25.3L167.948 45.847H167.11L155.373 25.144L152.151 45.847H148.985L153.681 17.116H154.215L167.55 40.69L180.756 17.116H181.282L186.002 45.847H182.787L179.546 25.3ZM136.35 39.929H122.965L120.297 45.847H113.807L126.457 17.116H132.789L145.406 45.847H138.916L136.35 39.929ZM129.662 24.733L125.261 34.597H134.037L129.662 24.733ZM110.964 40.593V45.847H90.9166L102.543 22.526H91.8755V17.116H111.723L100.042 40.593H110.964ZM66.0974 26.999V45.847H59.8532V17.116H65.8428L79.8781 36.023V17.116H86.1223V45.847H80.1156L66.0974 26.999ZM45.9472 39.929H32.5626L29.8941 45.847H23.4044L36.0545 17.116H42.3866L55.0033 45.847H48.5136L45.9472 39.929ZM39.2594 24.733L34.8582 34.597H43.6344L39.2594 24.733ZM18.3218 33.23C17.1175 33.529 14.9249 33.679 11.7432 33.679V45.847H5.5V17.116H12.1231C15.7049 17.116 18.2885 17.406 19.8718 17.985C21.4551 18.565 22.7039 19.502 23.6183 20.798C24.5327 22.094 24.9894 23.646 24.9894 25.456C24.9894 27.461 24.3913 29.128 23.195 30.456C21.9976 31.784 20.3739 32.709 18.3218 33.23ZM17.4751 23.017C16.7608 22.638 15.4382 22.448 13.5053 22.448H11.7432V28.347H13.7286C15.2897 28.347 16.3738 28.249 16.9841 28.053C17.5934 27.857 18.0733 27.534 18.4219 27.083C18.7715 26.632 18.9463 26.087 18.9463 25.447C18.9463 24.336 18.4562 23.526 17.4751 23.017Z" fill="var(--fill-0, #B91C1C)"/>
<rect id="Rectangle 8" width="333" height="4" fill="white"/>
<rect id="Rectangle 9" y="60" width="333" height="4" fill="white"/>
</g>
</svg>
