<svg preserveAspectRatio="none" width="100%" height="100%" overflow="visible" style="display: block;" viewBox="0 0 16.2671 22.9989" fill="none" xmlns="http://www.w3.org/2000/svg">
<g id="Group">
<path id="Vector" d="M8.13354 0C3.63398 0 0 3.79388 0 8.41401C0 10.0802 0.501839 11.4061 1.27963 12.6648L7.41484 22.5951C7.48994 22.7184 7.59549 22.8203 7.72136 22.8911C7.84722 22.9618 7.98917 22.9989 8.13354 22.9989C8.27791 22.9989 8.41986 22.9618 8.54572 22.8911C8.67159 22.8203 8.77714 22.7184 8.85224 22.5951L14.9875 12.6648C15.7652 11.4061 16.2671 10.0802 16.2671 8.41401C16.2671 3.79388 12.6331 0 8.13354 0ZM8.13354 1.6828C11.6887 1.6828 14.5843 4.66966 14.5843 8.41401C14.5843 9.76244 14.2309 10.6778 13.5501 11.7796L8.13354 20.5442L2.71702 11.7796C2.03622 10.6778 1.6828 9.76241 1.6828 8.41401C1.6828 4.66966 4.57843 1.6828 8.13354 1.6828ZM8.13354 3.92654C5.82005 3.92654 3.92654 5.82006 3.92654 8.13354C3.92654 10.447 5.82002 12.3405 8.13354 12.3405C10.4471 12.3405 12.3405 10.447 12.3405 8.13354C12.3405 5.82006 10.447 3.92654 8.13354 3.92654ZM8.13354 5.60934C9.53759 5.60934 10.6577 6.7295 10.6577 8.13354C10.6577 9.53753 9.53756 10.6577 8.13354 10.6577C6.72952 10.6577 5.60934 9.53753 5.60934 8.13354C5.60934 6.7295 6.7295 5.60934 8.13354 5.60934Z" fill="var(--fill-0, #C02527)"/>
</g>
</svg>
