<svg preserveAspectRatio="none" width="100%" height="100%" overflow="visible" style="display: block;" viewBox="0 0 313 60.1562" fill="none" xmlns="http://www.w3.org/2000/svg">
<g id="Logo">
<path id="Vector" fill-rule="evenodd" clip-rule="evenodd" d="M304.7 29.6813C303.233 30.2509 301.207 30.5423 298.621 30.5545L309.709 43.0933H305.898L294.809 30.5545H293.067V43.0933H289.986V16.0879H296.127C299.55 16.0879 301.87 16.2111 303.086 16.4564C304.916 16.8239 306.404 17.6106 307.551 18.8175C308.696 20.0244 309.27 21.5104 309.27 23.2756C309.27 24.7457 308.874 26.0391 308.085 27.1538C307.295 28.2696 306.167 29.1117 304.7 29.6813ZM305.244 20.797C304.683 20.0564 303.949 19.5272 303.039 19.2095C302.13 18.8908 300.618 18.732 298.505 18.732H293.067V27.9105L298.378 27.9481C300.436 27.9481 301.958 27.777 302.944 27.4339C303.931 27.0918 304.701 26.5438 305.254 25.7909C305.807 25.038 306.083 24.1968 306.083 23.2663C306.083 22.3611 305.803 21.5377 305.244 20.797ZM269.906 27.1952H284.368V29.8383H269.906V40.4493H284.368V43.0933H266.824V16.0879H284.495V18.732H269.906V27.1952ZM256.83 43.0933L245.741 30.5545H243.999V43.0933H240.918V16.0879H247.059C250.483 16.0879 252.802 16.2111 254.018 16.4564C255.849 16.8239 257.337 17.6106 258.482 18.8175C259.628 20.0244 260.201 21.5104 260.201 23.2756C260.201 24.7457 259.806 26.0391 259.017 27.1538C258.228 28.2696 257.099 29.1117 255.632 29.6813C254.165 30.2509 252.138 30.5423 249.553 30.5545L260.642 43.0933H256.83ZM253.876 27.4339C254.864 27.0918 255.633 26.5438 256.186 25.7909C256.738 25.038 257.016 24.1968 257.016 23.2663C257.016 22.3611 256.736 21.5377 256.175 20.797C255.616 20.0564 254.881 19.5272 253.971 19.2095C253.061 18.8908 251.549 18.732 249.436 18.732H243.999V27.9105L249.311 27.9481C251.368 27.9481 252.889 27.777 253.876 27.4339ZM229.128 42.1205C227.514 43.2212 225.561 43.772 223.269 43.772C220.782 43.772 218.65 43.2522 216.876 42.2117C215.101 41.1721 213.913 39.7951 213.313 38.0816C212.936 37.0289 212.747 35.1321 212.747 32.3902V16.0879H215.828V32.3902C215.828 34.3246 215.87 35.5296 215.954 36.0071C216.107 37.0712 216.464 37.9622 217.023 38.6775C217.582 39.3937 218.442 39.9934 219.601 40.4775C220.761 40.9606 221.928 41.2022 223.102 41.2022C224.122 41.2022 225.1 41.0123 226.036 40.6335C226.972 40.2538 227.754 39.7274 228.383 39.0544C229.013 38.3814 229.473 37.5674 229.767 36.6125C229.977 35.9272 230.081 34.5202 230.081 32.3902V16.0879H233.162V32.3902C233.162 34.8012 232.893 36.7506 232.356 38.2376C231.817 39.7246 230.741 41.0189 229.128 42.1205ZM199.686 34.2081H186.403L181.601 43.0933H178.163L192.73 16.0879H193.484L207.864 43.0933H204.535L199.686 34.2081ZM193.096 21.8253L187.813 31.6007H198.353L193.096 21.8253ZM168.761 23.7804L157.86 43.0933H157.073L146.041 23.6338L143.012 43.0933H140.036L144.45 16.0879H144.951L157.486 38.2461L169.899 16.0879H170.393L174.83 43.0933H171.808L168.761 23.7804ZM128.16 37.5308H115.579L113.071 43.0933H106.971L118.861 16.0879H124.813L136.672 43.0933H130.572L128.16 37.5308ZM121.874 23.2475L117.737 32.519H125.986L121.874 23.2475ZM104.298 38.1549V43.0933H85.4552L96.3835 21.173H86.3565V16.0879H105.012L94.033 38.1549H104.298ZM62.1266 25.3774V43.0933H56.2575V16.0879H61.8873L75.0797 33.8594V16.0879H80.9489V43.0933H75.3029L62.1266 25.3774ZM43.1867 37.5308H30.6059L28.0977 43.0933H21.9978L33.8881 16.0879H39.8399L51.6989 43.0933H45.5989L43.1867 37.5308ZM36.9005 23.2475L32.7636 32.519H41.0128L36.9005 23.2475ZM17.2205 31.2341C16.0884 31.5152 14.0276 31.6562 11.0369 31.6562V43.0933H5.1687V16.0879H11.394C14.7607 16.0879 17.1891 16.3605 18.6773 16.9047C20.1655 17.4499 21.3393 18.3306 22.1988 19.5488C23.0583 20.7669 23.4876 22.2257 23.4876 23.927C23.4876 25.8116 22.9254 27.3785 21.8009 28.6267C20.6755 29.875 19.1493 30.7444 17.2205 31.2341ZM16.4246 21.6345C15.7532 21.2783 14.51 21.0997 12.6932 21.0997H11.0369V26.6444H12.9031C14.3704 26.6444 15.3894 26.5523 15.9631 26.3681C16.5357 26.1838 16.9868 25.8802 17.3145 25.4563C17.6431 25.0324 17.8074 24.5201 17.8074 23.9186C17.8074 22.8743 17.3468 22.1129 16.4246 21.6345Z" fill="var(--fill-0, #C02527)"/>
<rect id="Rectangle 8" y="3.37362e-05" width="313" height="3.75976" fill="var(--fill-0, #231F20)"/>
<rect id="Rectangle 9" y="56.3964" width="313" height="3.75976" fill="var(--fill-0, #231F20)"/>
</g>
</svg>
